<svg width="20" height="20" viewBox="0 0 20 20" fill="none" xmlns="http://www.w3.org/2000/svg">
<path d="M9.75 0C4.37391 0 0 4.37391 0 9.75C0 15.1261 4.37391 19.5 9.75 19.5C15.1261 19.5 19.5 15.1261 19.5 9.75C19.5 4.37391 15.1261 0 9.75 0ZM12.0089 5.69156L13.1386 6.67875L9.68812 10.6209L8.55844 9.54L12.0089 5.69156ZM6.74672 13.8108L3.43922 10.5L4.5 9.43922L7.80797 12.75L6.74672 13.8108ZM9.79359 13.8478L6.44766 10.5L7.50891 9.43969L9.71953 11.6527L14.9288 5.69156L16.0584 6.67875L9.79359 13.8478Z" fill="#77A7BF"/>
</svg>
